<?xml version="1.0" encoding="utf-8"?>
<!-- Generator: Adobe Illustrator 19.0.1, SVG Export Plug-In . SVG Version: 6.00 Build 0)  -->
<svg version="1.1" xmlns="http://www.w3.org/2000/svg" xmlns:xlink="http://www.w3.org/1999/xlink" x="0px" y="0px"
	 viewBox="0 0 1024 768" enable-background="new 0 0 1024 768" xml:space="preserve">
<pattern  y="768" width="601.5" height="478.4" patternUnits="userSpaceOnUse" id="chevys" viewBox="100.5 -558.1 601.5 478.4" overflow="visible">
	<g>
		<polygon fill="none" points="100.5,-558.1 702,-558.1 702,-79.7 100.5,-79.7 		"/>
		<g>
			<polygon fill="#7986CB" stroke="#1A237E" stroke-miterlimit="10" points="602,-479.3 502,-537 502,-637 602,-579.3 			"/>
			<polygon fill="#E8EAF6" stroke="#1A237E" stroke-miterlimit="10" points="702,-637 602,-579.3 602,-479.3 702,-537 			"/>
			<polygon fill="#7986CB" stroke="#1A237E" stroke-miterlimit="10" points="802,-479.3 702,-537 702,-637 802,-579.3 			"/>
		</g>
		<g>
			<polygon fill="#7986CB" stroke="#1A237E" stroke-miterlimit="10" points="301.3,-399.5 201.3,-457.3 201.3,-557.3 301.3,-499.5 
							"/>
			<polygon fill="#E8EAF6" stroke="#1A237E" stroke-miterlimit="10" points="401.3,-557.3 301.3,-499.5 301.3,-399.5 401.3,-457.3 
							"/>
			<polygon fill="#7986CB" stroke="#1A237E" stroke-miterlimit="10" points="501.3,-399.5 401.3,-457.3 401.3,-557.3 501.3,-499.5 
							"/>
			<polygon fill="#E8EAF6" stroke="#1A237E" stroke-miterlimit="10" points="601.3,-557.3 501.3,-499.5 501.3,-399.5 601.3,-457.3 
							"/>
		</g>
		<g>
			<polygon fill="#E8EAF6" stroke="#1A237E" stroke-miterlimit="10" points="100.5,-637 0.5,-579.3 0.5,-479.3 100.5,-537 			"/>
			<polygon fill="#7986CB" stroke="#1A237E" stroke-miterlimit="10" points="200.5,-479.3 100.5,-537 100.5,-637 200.5,-579.3 			
				"/>
			<polygon fill="#E8EAF6" stroke="#1A237E" stroke-miterlimit="10" points="300.5,-637 200.5,-579.3 200.5,-479.3 300.5,-537 			
				"/>
		</g>
		<g>
			<polygon fill="#7986CB" stroke="#1A237E" stroke-miterlimit="10" points="602,-319.8 502,-377.5 502,-477.5 602,-419.8 			"/>
			<polygon fill="#E8EAF6" stroke="#1A237E" stroke-miterlimit="10" points="702,-477.5 602,-419.8 602,-319.8 702,-377.5 			"/>
			<polygon fill="#7986CB" stroke="#1A237E" stroke-miterlimit="10" points="802,-319.8 702,-377.5 702,-477.5 802,-419.8 			"/>
		</g>
		<g>
			<polygon fill="#7986CB" stroke="#1A237E" stroke-miterlimit="10" points="301.3,-240.1 201.3,-297.8 201.3,-397.8 301.3,-340.1 
							"/>
			<polygon fill="#E8EAF6" stroke="#1A237E" stroke-miterlimit="10" points="401.3,-397.8 301.3,-340.1 301.3,-240.1 401.3,-297.8 
							"/>
			<polygon fill="#7986CB" stroke="#1A237E" stroke-miterlimit="10" points="501.3,-240.1 401.3,-297.8 401.3,-397.8 501.3,-340.1 
							"/>
			<polygon fill="#E8EAF6" stroke="#1A237E" stroke-miterlimit="10" points="601.3,-397.8 501.3,-340.1 501.3,-240.1 601.3,-297.8 
							"/>
		</g>
		<g>
			<polygon fill="#E8EAF6" stroke="#1A237E" stroke-miterlimit="10" points="100.5,-477.5 0.5,-419.8 0.5,-319.8 100.5,-377.5 			
				"/>
			<polygon fill="#7986CB" stroke="#1A237E" stroke-miterlimit="10" points="200.5,-319.8 100.5,-377.5 100.5,-477.5 200.5,-419.8 
							"/>
			<polygon fill="#E8EAF6" stroke="#1A237E" stroke-miterlimit="10" points="300.5,-477.5 200.5,-419.8 200.5,-319.8 300.5,-377.5 
							"/>
		</g>
		<g>
			<polygon fill="#7986CB" stroke="#1A237E" stroke-miterlimit="10" points="602,-160.3 502,-218.1 502,-318.1 602,-260.3 			"/>
			<polygon fill="#E8EAF6" stroke="#1A237E" stroke-miterlimit="10" points="702,-318.1 602,-260.3 602,-160.3 702,-218.1 			"/>
			<polygon fill="#7986CB" stroke="#1A237E" stroke-miterlimit="10" points="802,-160.3 702,-218.1 702,-318.1 802,-260.3 			"/>
		</g>
		<g>
			<polygon fill="#7986CB" stroke="#1A237E" stroke-miterlimit="10" points="301.3,-80.6 201.3,-138.3 201.3,-238.3 301.3,-180.6 
							"/>
			<polygon fill="#E8EAF6" stroke="#1A237E" stroke-miterlimit="10" points="401.3,-238.3 301.3,-180.6 301.3,-80.6 401.3,-138.3 
							"/>
			<polygon fill="#7986CB" stroke="#1A237E" stroke-miterlimit="10" points="501.3,-80.6 401.3,-138.3 401.3,-238.3 501.3,-180.6 
							"/>
			<polygon fill="#E8EAF6" stroke="#1A237E" stroke-miterlimit="10" points="601.3,-238.3 501.3,-180.6 501.3,-80.6 601.3,-138.3 
							"/>
		</g>
		<g>
			<polygon fill="#E8EAF6" stroke="#1A237E" stroke-miterlimit="10" points="100.5,-318.1 0.5,-260.3 0.5,-160.3 100.5,-218.1 			
				"/>
			<polygon fill="#7986CB" stroke="#1A237E" stroke-miterlimit="10" points="200.5,-160.3 100.5,-218.1 100.5,-318.1 200.5,-260.3 
							"/>
			<polygon fill="#E8EAF6" stroke="#1A237E" stroke-miterlimit="10" points="300.5,-318.1 200.5,-260.3 200.5,-160.3 300.5,-218.1 
							"/>
		</g>
		<g>
			<polygon fill="#7986CB" stroke="#1A237E" stroke-miterlimit="10" points="602,-0.9 502,-58.6 502,-158.6 602,-100.9 			"/>
			<polygon fill="#E8EAF6" stroke="#1A237E" stroke-miterlimit="10" points="702,-158.6 602,-100.9 602,-0.9 702,-58.6 			"/>
			<polygon fill="#7986CB" stroke="#1A237E" stroke-miterlimit="10" points="802,-0.9 702,-58.6 702,-158.6 802,-100.9 			"/>
		</g>
		<g>
			<polygon fill="#E8EAF6" stroke="#1A237E" stroke-miterlimit="10" points="100.5,-158.6 0.5,-100.9 0.5,-0.9 100.5,-58.6 			"/>
			<polygon fill="#7986CB" stroke="#1A237E" stroke-miterlimit="10" points="200.5,-0.9 100.5,-58.6 100.5,-158.6 200.5,-100.9 			
				"/>
			<polygon fill="#E8EAF6" stroke="#1A237E" stroke-miterlimit="10" points="300.5,-158.6 200.5,-100.9 200.5,-0.9 300.5,-58.6 			
				"/>
		</g>
	</g>
</pattern>
<g id="Layer_1">
	<defs>
		<filter id="Adobe_OpacityMaskFilter" filterUnits="userSpaceOnUse" x="0" y="1" width="1024" height="767">
			<feFlood  style="flood-color:white;flood-opacity:1" result="back"/>
			<feBlend  in="SourceGraphic" in2="back" mode="normal"/>
		</filter>
	</defs>
	<mask maskUnits="userSpaceOnUse" x="0" y="1" width="1024" height="767" id="SVGID_1_">
		<g filter="url(#Adobe_OpacityMaskFilter)">
		</g>
	</mask>
	<rect y="1" mask="url(#SVGID_1_)" fill="url(#chevys)" width="1024" height="767"/>
</g>
<g id="Layer_2" display="none">
	<polygon display="inline" fill="#7986CB" stroke="#1A237E" stroke-miterlimit="10" points="-313.7,686.7 -413.7,629 -413.7,529 
		-313.7,586.7 	"/>
	<polygon display="inline" fill="#E8EAF6" stroke="#1A237E" stroke-miterlimit="10" points="-213.7,529 -313.7,586.7 -313.7,686.7 
		-213.7,629 	"/>
	<polygon display="inline" fill="#7986CB" stroke="#1A237E" stroke-miterlimit="10" points="-113.7,686.7 -213.7,629 -213.7,529 
		-113.7,586.7 	"/>
	<polygon display="inline" fill="#E8EAF6" stroke="#1A237E" stroke-miterlimit="10" points="-13.7,529 -113.7,586.7 -113.7,686.7 
		-13.7,629 	"/>
</g>
</svg>
