<svg id="Layer_1" data-name="Layer 1" xmlns="http://www.w3.org/2000/svg" xmlns:xlink="http://www.w3.org/1999/xlink" viewBox="0 0 1920 1080"><defs><style>.cls-1{fill:#1a237e;}.cls-2{fill:url(#linear-gradient);}.cls-11,.cls-3{fill:#3f51b5;}.cls-4{fill:none;stroke:#3f51b5;stroke-linecap:round;stroke-miterlimit:10;stroke-width:4.0584px;}.cls-5{font-size:60px;fill:#cce5f6;letter-spacing:0.075em;}.cls-11,.cls-5{font-family:Soleil-ExtraBold, Soleil;font-weight:700;}.cls-6{letter-spacing:0.055em;}.cls-7{letter-spacing:0.085em;}.cls-8{letter-spacing:0.065em;}.cls-9{letter-spacing:0.075em;}.cls-10{letter-spacing:0.045em;}.cls-11{font-size:36px;}.cls-12{letter-spacing:-0.02em;}.cls-13{letter-spacing:0.01em;}.cls-14{letter-spacing:-0.005em;}.cls-15{letter-spacing:0.005em;}.cls-16{letter-spacing:0.005em;}.cls-17{letter-spacing:-0.005em;}.cls-18{letter-spacing:0.015em;}.cls-19{letter-spacing:-0.04em;}.cls-20{letter-spacing:-0.01em;}.cls-21{letter-spacing:0em;}</style><linearGradient id="linear-gradient" x1="940.4091" y1="762.3181" x2="936.5771" y2="232.8364" gradientUnits="userSpaceOnUse"><stop offset="0" stop-opacity="0"/><stop offset="0.1676" stop-color="#020106" stop-opacity="0.062"/><stop offset="0.3962" stop-color="#060518" stop-opacity="0.2366"/><stop offset="0.6601" stop-color="#0e0a34" stop-opacity="0.5238"/><stop offset="0.9483" stop-color="#19125c" stop-opacity="0.9207"/><stop offset="1" stop-color="#1b1464"/></linearGradient></defs><title>bt_hero</title><rect class="cls-1" width="1920" height="1080"/><path class="cls-2" d="M361.5979,638.4418s278.6577,31.38,361.372,49.4016a8.1076,8.1076,0,0,0,9.7571-6.8541L795.16,215.04a8.1156,8.1156,0,0,1,5.0391-6.4613l85.109-33.92a8.1159,8.1159,0,0,1,7.297.6513l38.463,23.97a10.1445,10.1445,0,0,1,4.7787,8.5l3.9089,362.88a12.1736,12.1736,0,0,0,7.8055,11.2321l170.3924,65.4889a8.1158,8.1158,0,0,0,11.0059-8.1652L1115.52,454.727a8.1158,8.1158,0,0,1,6.3491-8.5156l63.8828-14.0659a8.1156,8.1156,0,0,1,5.6475.81l14.7336,8.08a8.1155,8.1155,0,0,1,4.1325,5.9725l49.3621,346.851a8.1129,8.1129,0,0,0,6.2522,6.7741c22.5328,5.0667,108.9355,24.4837,148.7361,33.2633,45.9893,10.1447,104.49,36.5208,104.49,36.5208-4.9067-2.157-36.859,1.6908-58.1629,0s-194.7779-32.1248-194.7779-32.1248l25.3617,190.72H686.904l21.3038-278.9787"/><path class="cls-3" d="M361.5979,637.9847q77.7653,8.5418,155.413,18.1379,38.82,4.824,77.6,9.9789c12.9282,1.7067,25.8395,3.545,38.7568,5.34,12.9032,1.9,25.8182,3.7161,38.6983,5.7916,6.445,1.0023,12.8909,1.998,19.3147,3.15l9.6445,1.6678,4.8211.8428,4.8057.9486,9.612,1.8976,2.403.4745c.4195.0888.7771.1447,1.1158.1978a7.1988,7.1988,0,0,0,1.0536.059,7.03,7.03,0,0,0,3.9423-1.3258,7.1129,7.1129,0,0,0,2.4978-3.3239,10.51,10.51,0,0,0,.4416-2.1622l.32-2.4236,1.2815-9.6947,10.2521-77.5578,20.5042-155.1153,20.5831-155.1048,5.172-38.7727,2.5861-19.3864.6465-4.8466.324-2.4256a10.0007,10.0007,0,0,1,.8386-2.8522,9.8868,9.8868,0,0,1,3.9491-4.3548,10.4283,10.4283,0,0,1,1.3364-.6612l1.1391-.4555,2.2705-.9064,72.6561-29.0066,9.0906-3.628a9.9815,9.9815,0,0,1,5.8975-.4331,9.7915,9.7915,0,0,1,2.78,1.1049l2.1233,1.3127,16.6048,10.3344,16.6047,10.3344,2.0756,1.2918c.6881.44,1.3607.8115,2.1884,1.4238a12.0324,12.0324,0,0,1,4.547,7.19,13.6532,13.6532,0,0,1,.2028,1.4347c.0339.4907.0453.9751.0466,1.3531l.0555,4.8892.8886,78.2272L940.46,447.385l.8012,78.2282.3982,39.114.05,4.8893.0078.6038.0256.5125c.0061.3428.0756.6794.11,1.0193a10.6747,10.6747,0,0,0,.5413,1.9742,10.1966,10.1966,0,0,0,5.5448,5.7481l18.1841,7.0171L1112.1385,642.71l4.563,1.7568,1.1408.4392c.37.1392.7973.3187,1.0674.3858a6.3852,6.3852,0,0,0,1.8526.3243,6.2956,6.2956,0,0,0,5.923-3.9248,6.0667,6.0667,0,0,0,.4349-1.824c.0317-.3139-.0017-.6348.0108-.9523l-.0857-1.2127-.3524-4.8768-.7047-9.7536-2.819-39.0144-5.6378-78.0289-2.819-39.0144-.7048-9.7536-.1762-2.4384c-.0331-.3688-.0512-.9006-.0517-1.3882a10.4679,10.4679,0,0,1,.1528-1.4733,9.79,9.79,0,0,1,2.6831-5.1812,10.03,10.03,0,0,1,2.3608-1.7724,10.8368,10.8368,0,0,1,2.737-.977l4.7757-1.0485,9.5533-2.09,38.216-8.3431,9.554-2.0858c.8165-.1623,1.5152-.37,2.5553-.5066a9.6916,9.6916,0,0,1,5.6677,1.0687l2.1646,1.1886,8.566,4.7173,4.3113,2.3809a9.6726,9.6726,0,0,1,3.89,4.2261,9.8169,9.8169,0,0,1,.837,2.78l.3407,2.423.68,4.842,1.3605,9.6839,2.7211,19.3679,5.4422,38.7357,10.8843,77.4716,21.7611,154.944,5.3981,38.742a9.7074,9.7074,0,0,0,.4691,2.2079,7.2445,7.2445,0,0,0,4.5337,4.4183c.6575.2136,1.515.3745,2.2948.56l2.3843.5405,4.7684,1.0811,19.0736,4.3241,76.2953,17.2968,38.1479,8.6484c3.1784.7254,6.3605,1.4222,9.5315,2.2063l4.76,1.1469c1.5868.3815,3.1526.8423,4.73,1.26l4.7233,1.2826,4.6927,1.3876,4.69,1.3959,4.66,1.4914c12.4221,3.9889,24.6914,8.43,36.851,13.1422q18.2291,7.0951,36.1084,15.0414-17.9152-7.8458-36.2183-14.7552c-12.1914-4.615-24.4879-8.9571-36.926-12.8438l-4.6641-1.4573-4.6909-1.3663-4.6929-1.358-4.7214-1.2524c-1.5762-.4072-3.1417-.8581-4.7266-1.2293l-4.7536-1.116c-3.1625-.7626-6.3534-1.4419-9.5352-2.1485l-38.1983-8.4256-76.3974-16.8513-19.1-4.2128-4.7749-1.0532-2.3874-.5267c-.8053-.1894-1.5581-.3116-2.4552-.5894a8.9731,8.9731,0,0,1-5.6441-5.44,11.471,11.471,0,0,1-.5711-2.5573l-5.6244-38.71-22.3291-154.8632-11.1608-77.4322-5.58-38.7161-2.79-19.358-1.3951-9.679-.6975-4.84-.3488-2.4177a6.7032,6.7032,0,0,0-.5747-1.8818,6.5406,6.5406,0,0,0-2.6423-2.85l-4.2577-2.3306-8.5828-4.6868-2.1252-1.1574a6.484,6.484,0,0,0-3.7987-.7024c-.5783.0683-1.4557.2986-2.2353.4617l-9.5465,2.12-38.186,8.4794-9.5474,2.1161-4.7745,1.0542a7.3083,7.3083,0,0,0-1.8551.6543,6.5892,6.5892,0,0,0-1.5309,1.1555,6.3453,6.3453,0,0,0-1.7407,3.3687,7.05,7.05,0,0,0-.1.9559c.0075.3266.0066.6105.0451,1.0536l.1791,2.4382.7162,9.7527,2.8651,39.0111,5.73,78.0221,2.865,39.0111.7163,9.7528.3581,4.8763.0881,1.2257c0,.4964.0335.9938-.0116,1.49a9.7419,9.7419,0,0,1-.6872,2.9116,9.972,9.972,0,0,1-9.3968,6.2342,10.0742,10.0742,0,0,1-2.9417-.5076c-.5158-.1528-.8379-.2967-1.2314-.4429l-1.1413-.4379-4.565-1.7515-146.082-56.0464-18.3162-7.0455a14.1106,14.1106,0,0,1-7.6748-7.9385,14.6,14.6,0,0,1-.7506-2.7327c-.0568-.4689-.1419-.9367-.1568-1.4095l-.034-.7083-.0088-.6184-.0555-4.8893-.4445-39.1136-.8841-78.2272-1.5936-156.4564-.7967-78.2282-.05-4.8892c-.0012-.4369-.0131-.7675-.0331-1.09-.028-.3309-.0767-.6587-.1375-.985a8.2677,8.2677,0,0,0-3.1183-4.941c-.4777-.3645-1.2249-.8024-1.9112-1.237l-2.0741-1.2942-16.5927-10.3539L893.5067,177.6l-2.0334-1.2618a6.0886,6.0886,0,0,0-1.7448-.6962,6.2765,6.2765,0,0,0-3.7076.267l-9.0784,3.6108-72.69,28.9213-2.2716.9038-1.1313.4509a6.8556,6.8556,0,0,0-.8527.4216,6.2982,6.2982,0,0,0-2.5221,2.7754,6.416,6.416,0,0,0-.5388,1.8194l-.3262,2.4205-.6522,4.8458-2.6087,19.3833-5.2176,38.7666L767.1561,435.281,746.102,590.3227l-10.527,77.5208-1.316,9.69-.3289,2.4226a12.75,12.75,0,0,1-.56,2.613,9.3283,9.3283,0,0,1-3.3022,4.3664,9.2286,9.2286,0,0,1-5.19,1.7241,9.3669,9.3669,0,0,1-1.3829-.0819c-.4667-.0724-.9126-.1518-1.29-.2327l-2.3922-.481-9.5692-1.9242-4.7847-.9624-4.8087-.8581-9.6216-1.6989c-6.4073-1.17-12.8436-2.19-19.2758-3.2344-12.8539-2.148-25.7525-4.0385-38.6373-6.012-12.9012-1.8692-25.7968-3.7818-38.7117-5.563q-38.7312-5.4391-77.5274-10.4274-38.79-5.0238-77.6133-9.8Q400.445,642.5693,361.5979,637.9847Z"/><path class="cls-3" d="M890.8151,175.5873,846.6039,580.1491c-7.3843,67.425-14.63,134.8649-22.4137,202.2462l-22.9753,202.184,21.9667-202.2944c7.4472-67.4175,14.3569-134.8936,21.4049-202.3545L886.78,175.1564a2.0292,2.0292,0,0,1,4.0365.4208Z"/><path class="cls-3" d="M1233.7692,990.1388l-47.3877-557.5962a2.0288,2.0288,0,1,1,4.0431-.3436l.0012.0147Z"/><line class="cls-4" x1="1197.872" y1="789.1404" x2="881.3579" y2="719.1421"/><path class="cls-3" d="M1576.6276,1014.6678a134.2424,134.2424,0,0,0-38.8473-9.6388,186.4735,186.4735,0,0,0-40.0546.6356,319.4542,319.4542,0,0,0-39.439,7.3619c-13.0025,3.187-25.8607,6.9427-38.6816,10.8246-25.6374,7.7666-51.1007,16.274-77.2216,22.6167a307.1407,307.1407,0,0,1-39.6883,7.133,172.3228,172.3228,0,0,1-40.3945-.143,127.5342,127.5342,0,0,1-19.8454-4.18c-6.4814-1.9571-12.7861-4.2108-19.1008-6.5395-12.6008-4.6874-24.97-9.95-37.2084-15.4578-24.4762-11.0146-48.4743-22.98-73.313-32.889a393.2326,393.2326,0,0,0-37.8508-13.0812,314.8433,314.8433,0,0,0-39.0645-8.5833,340.84,340.84,0,0,0-79.8469-2.3988c-26.633,2.1423-52.9812,7.16-79.0628,13.1153a648.2969,648.2969,0,0,0-76.9505,22.6141c-12.5814,4.5512-25.0211,9.496-37.4392,14.53s-24.8532,10.0889-37.5025,14.6314a321.35,321.35,0,0,1-38.6627,11.4479,303.2859,303.2859,0,0,1-39.8318,6.233c-13.3881,1.2193-26.83,1.6393-40.2542,1.5578-3.36-.0434-6.7014.0007-10.09-.1725-3.3709-.2018-6.7346-.4922-10.0709-.9561-6.6813-.8748-13.2909-2.1568-19.8393-3.6634-13.1005-3.0131-25.9723-6.8753-38.7091-11.0908-12.7368-4.2243-25.329-8.8572-37.8332-13.7038-25-9.72-49.6324-20.3434-74.0308-31.4586q-36.5892-16.6935-72.4219-34.9709c23.9637,12.0168,48.2358,23.4074,72.6776,34.4054,24.4583,10.96,49.1443,21.4241,74.1774,30.9785,12.52,4.7637,25.1234,9.3118,37.8584,13.4478,12.7349,4.1258,25.5944,7.89,38.632,10.85,13.044,2.9446,26.2677,5.0209,39.6554,4.5891,13.3783.01,26.7593-.4812,40.0646-1.765a301.21,301.21,0,0,0,39.5283-6.4023,319.0776,319.0776,0,0,0,38.3362-11.5764c12.5631-4.5749,24.9265-9.72,37.3452-14.7732,12.4157-5.0586,24.8837-10.0406,37.5042-14.6313a651.0422,651.0422,0,0,1,77.227-22.8447l4.9041-1.1449,4.9225-1.0608c3.2833-.6983,6.5594-1.4341,9.849-2.1015,6.5926-1.2733,13.159-2.6481,19.7868-3.7863,6.6217-1.1489,13.2627-2.2,19.9314-3.06,6.6634-.8963,13.353-1.607,20.0552-2.1716,26.7946-2.2456,53.9214-1.83,80.5464,2.3746a317.8162,317.8162,0,0,1,39.4136,8.7371,396.1058,396.1058,0,0,1,38.1024,13.2469c24.9617,10.0143,48.9737,22.045,73.3626,33.0736,12.1955,5.5158,24.4985,10.777,37.0166,15.46,6.2543,2.3208,12.576,4.5912,18.9231,6.52a128.7657,128.7657,0,0,0,19.4386,4.1871,169.973,169.973,0,0,0,39.8349.36,305.03,305.03,0,0,0,39.4465-6.8619c26.0394-6.1659,51.5332-14.52,77.24-22.15,12.85-3.8333,25.7837-7.43,38.8456-10.5191a320.4753,320.4753,0,0,1,39.6324-7.0184,187.15,187.15,0,0,1,40.202-.2659A134.18,134.18,0,0,1,1576.6276,1014.6678Z"/><text class="cls-5" transform="translate(593.6448 75.5386)">BRIDGE<tspan class="cls-6" x="245.6968" y="0">T</tspan><tspan class="cls-7" x="278.6367" y="0">OW</tspan><tspan x="396.4746" y="0">N </tspan><tspan class="cls-8" x="465.2339" y="0">S</tspan><tspan class="cls-9" x="505.6733" y="0">OU</tspan><tspan class="cls-10" x="607.1924" y="0">R</tspan><tspan x="648.4121" y="0">CE</tspan></text><text class="cls-11" transform="translate(502.8577 111.5386) scale(0.9905 1)">CUS<tspan class="cls-12" x="71.9268" y="0">T</tspan><tspan x="88.9907" y="0">OM </tspan><tspan class="cls-13" x="162.6822" y="0">W</tspan><tspan x="197.8177" y="0">EB DE</tspan><tspan class="cls-14" x="296.4564" y="0">S</tspan><tspan x="318.2004" y="0">IGN </tspan><tspan class="cls-15" x="393.4028" y="0">A</tspan><tspan x="418.8902" y="0">ND </tspan><tspan class="cls-16" x="480.4138" y="0">A</tspan><tspan class="cls-17" x="505.9002" y="0">PP</tspan><tspan x="548.0928" y="0">LI</tspan><tspan class="cls-18" x="577.6481" y="0">C</tspan><tspan class="cls-19" x="602.4878" y="0">A</tspan><tspan x="626.3554" y="0">TION </tspan><tspan class="cls-20" x="720.7454" y="0">S</tspan><tspan x="742.309" y="0">O</tspan><tspan class="cls-12" x="772.1166" y="0">L</tspan><tspan class="cls-21" x="790.0087" y="0">UTIONS</tspan></text></svg>